# xmcd
#
# Track frame offsets:
#	150
#	17283
#	29855
#	41928
#	57139
#	72220
#	83812
#	110871
#	123898
#	138201
#	154487
#	162218
#	179950
#	197905
#	218501
#	237391
#	248746
#
# Disc length: 3509 seconds
#
# Revision: 1
# Processed by: cddbd v1.5.1PL2 Copyright (c) Steve Scherf et al.
# Submitted via: audiograbber 1.83.01
#
DISCID=f70db311
DTITLE=Sam Mitchell - Resonating
DYEAR=2000
DGENRE=Blues
TTITLE0=Refugee Blues
TTITLE1=Blues In The Bottle
TTITLE2=Let There Be Smoke
TTITLE3=Monkey In The Head
TTITLE4=Unfinished Business
TTITLE5=Packing Pallets
TTITLE6=Solar Skates
TTITLE7=Same Ole Blues
TTITLE8=Talkin' Mr. Johnson
TTITLE9=Let's Split
TTITLE10=Little Peer
TTITLE11=Parchman Farm
TTITLE12=Kokomo
TTITLE13=Drifter
TTITLE14=Jiggy Jiggy Man
TTITLE15=Studio 51
TTITLE16=Hey Alexis
EXTD=Taxim Records
EXTT0=
EXTT1=
EXTT2=
EXTT3=
EXTT4=
EXTT5=
EXTT6=
EXTT7=
EXTT8=
EXTT9=
EXTT10=
EXTT11=
EXTT12=
EXTT13=
EXTT14=
EXTT15=
EXTT16=
PLAYORDER=
